<mxfile host="app.diagrams.net" agent="Mozilla/5.0 (Windows NT 10.0; Win64; x64) AppleWebKit/537.36 (KHTML, like Gecko) Chrome/131.0.0.0 Safari/537.36" version="26.0.10">
  <diagram name="PÃ¡gina-1" id="wPx2-8kM66AW9zy1dcU9">
    <mxGraphModel dx="1050" dy="603" grid="1" gridSize="10" guides="1" tooltips="1" connect="1" arrows="1" fold="1" page="1" pageScale="1" pageWidth="827" pageHeight="1169" math="0" shadow="0">
      <root>
        <mxCell id="0" />
        <mxCell id="1" parent="0" />
        <mxCell id="p6krplFnAL_RDodfGGNE-7" style="edgeStyle=orthogonalEdgeStyle;rounded=0;orthogonalLoop=1;jettySize=auto;html=1;exitX=1;exitY=0.5;exitDx=0;exitDy=0;entryX=0;entryY=0.5;entryDx=0;entryDy=0;" edge="1" parent="1" source="p6krplFnAL_RDodfGGNE-2" target="p6krplFnAL_RDodfGGNE-6">
          <mxGeometry relative="1" as="geometry" />
        </mxCell>
        <mxCell id="p6krplFnAL_RDodfGGNE-9" style="edgeStyle=orthogonalEdgeStyle;rounded=0;orthogonalLoop=1;jettySize=auto;html=1;exitX=1;exitY=0.5;exitDx=0;exitDy=0;entryX=0;entryY=0.5;entryDx=0;entryDy=0;" edge="1" parent="1" source="p6krplFnAL_RDodfGGNE-2" target="p6krplFnAL_RDodfGGNE-8">
          <mxGeometry relative="1" as="geometry">
            <Array as="points">
              <mxPoint x="140" y="80" />
              <mxPoint x="200" y="80" />
              <mxPoint x="200" y="220" />
            </Array>
          </mxGeometry>
        </mxCell>
        <mxCell id="p6krplFnAL_RDodfGGNE-12" style="edgeStyle=orthogonalEdgeStyle;rounded=0;orthogonalLoop=1;jettySize=auto;html=1;exitX=1;exitY=0.75;exitDx=0;exitDy=0;entryX=0;entryY=0.5;entryDx=0;entryDy=0;" edge="1" parent="1" source="p6krplFnAL_RDodfGGNE-2" target="p6krplFnAL_RDodfGGNE-10">
          <mxGeometry relative="1" as="geometry">
            <Array as="points">
              <mxPoint x="140" y="90" />
              <mxPoint x="170" y="90" />
              <mxPoint x="170" y="320" />
            </Array>
          </mxGeometry>
        </mxCell>
        <mxCell id="p6krplFnAL_RDodfGGNE-13" style="edgeStyle=orthogonalEdgeStyle;rounded=0;orthogonalLoop=1;jettySize=auto;html=1;exitX=1;exitY=1;exitDx=0;exitDy=0;entryX=0;entryY=0.5;entryDx=0;entryDy=0;" edge="1" parent="1" source="p6krplFnAL_RDodfGGNE-2" target="p6krplFnAL_RDodfGGNE-11">
          <mxGeometry relative="1" as="geometry" />
        </mxCell>
        <mxCell id="p6krplFnAL_RDodfGGNE-24" style="edgeStyle=orthogonalEdgeStyle;rounded=0;orthogonalLoop=1;jettySize=auto;html=1;exitX=0.5;exitY=0;exitDx=0;exitDy=0;entryX=0.5;entryY=0;entryDx=0;entryDy=0;" edge="1" parent="1" source="p6krplFnAL_RDodfGGNE-2" target="p6krplFnAL_RDodfGGNE-14">
          <mxGeometry relative="1" as="geometry" />
        </mxCell>
        <mxCell id="p6krplFnAL_RDodfGGNE-2" value="Account" style="swimlane;fontStyle=0;childLayout=stackLayout;horizontal=1;startSize=30;horizontalStack=0;resizeParent=1;resizeParentMax=0;resizeLast=0;collapsible=1;marginBottom=0;whiteSpace=wrap;html=1;" vertex="1" parent="1">
          <mxGeometry y="40" width="140" height="60" as="geometry" />
        </mxCell>
        <mxCell id="p6krplFnAL_RDodfGGNE-25" style="edgeStyle=orthogonalEdgeStyle;rounded=0;orthogonalLoop=1;jettySize=auto;html=1;exitX=1;exitY=0.5;exitDx=0;exitDy=0;entryX=0;entryY=0.5;entryDx=0;entryDy=0;" edge="1" parent="1" source="p6krplFnAL_RDodfGGNE-6" target="p6krplFnAL_RDodfGGNE-14">
          <mxGeometry relative="1" as="geometry" />
        </mxCell>
        <mxCell id="p6krplFnAL_RDodfGGNE-32" style="edgeStyle=orthogonalEdgeStyle;rounded=0;orthogonalLoop=1;jettySize=auto;html=1;exitX=1;exitY=0.75;exitDx=0;exitDy=0;entryX=1;entryY=0.5;entryDx=0;entryDy=0;" edge="1" parent="1" source="p6krplFnAL_RDodfGGNE-6" target="p6krplFnAL_RDodfGGNE-10">
          <mxGeometry relative="1" as="geometry" />
        </mxCell>
        <mxCell id="p6krplFnAL_RDodfGGNE-6" value="Contact" style="swimlane;fontStyle=0;childLayout=stackLayout;horizontal=1;startSize=30;horizontalStack=0;resizeParent=1;resizeParentMax=0;resizeLast=0;collapsible=1;marginBottom=0;whiteSpace=wrap;html=1;" vertex="1" parent="1">
          <mxGeometry x="240" y="40" width="140" height="60" as="geometry" />
        </mxCell>
        <mxCell id="p6krplFnAL_RDodfGGNE-26" style="edgeStyle=orthogonalEdgeStyle;rounded=0;orthogonalLoop=1;jettySize=auto;html=1;exitX=0.5;exitY=0;exitDx=0;exitDy=0;entryX=0.5;entryY=1;entryDx=0;entryDy=0;" edge="1" parent="1" source="p6krplFnAL_RDodfGGNE-8" target="p6krplFnAL_RDodfGGNE-14">
          <mxGeometry relative="1" as="geometry" />
        </mxCell>
        <mxCell id="p6krplFnAL_RDodfGGNE-8" value="Opportunity" style="swimlane;fontStyle=0;childLayout=stackLayout;horizontal=1;startSize=30;horizontalStack=0;resizeParent=1;resizeParentMax=0;resizeLast=0;collapsible=1;marginBottom=0;whiteSpace=wrap;html=1;" vertex="1" parent="1">
          <mxGeometry x="240" y="190" width="140" height="60" as="geometry" />
        </mxCell>
        <mxCell id="p6krplFnAL_RDodfGGNE-28" style="edgeStyle=orthogonalEdgeStyle;rounded=0;orthogonalLoop=1;jettySize=auto;html=1;exitX=1;exitY=0.25;exitDx=0;exitDy=0;entryX=0;entryY=0.25;entryDx=0;entryDy=0;endArrow=none;startFill=0;" edge="1" parent="1" source="p6krplFnAL_RDodfGGNE-10" target="p6krplFnAL_RDodfGGNE-15">
          <mxGeometry relative="1" as="geometry" />
        </mxCell>
        <mxCell id="p6krplFnAL_RDodfGGNE-10" value="Asset" style="swimlane;fontStyle=0;childLayout=stackLayout;horizontal=1;startSize=30;horizontalStack=0;resizeParent=1;resizeParentMax=0;resizeLast=0;collapsible=1;marginBottom=0;whiteSpace=wrap;html=1;" vertex="1" parent="1">
          <mxGeometry x="240" y="290" width="140" height="60" as="geometry" />
        </mxCell>
        <mxCell id="p6krplFnAL_RDodfGGNE-31" style="edgeStyle=orthogonalEdgeStyle;rounded=0;orthogonalLoop=1;jettySize=auto;html=1;exitX=0.5;exitY=0;exitDx=0;exitDy=0;entryX=0.5;entryY=1;entryDx=0;entryDy=0;" edge="1" parent="1" source="p6krplFnAL_RDodfGGNE-11" target="p6krplFnAL_RDodfGGNE-10">
          <mxGeometry relative="1" as="geometry" />
        </mxCell>
        <mxCell id="p6krplFnAL_RDodfGGNE-11" value="Case" style="swimlane;fontStyle=0;childLayout=stackLayout;horizontal=1;startSize=30;horizontalStack=0;resizeParent=1;resizeParentMax=0;resizeLast=0;collapsible=1;marginBottom=0;whiteSpace=wrap;html=1;" vertex="1" parent="1">
          <mxGeometry x="240" y="390" width="140" height="60" as="geometry" />
        </mxCell>
        <mxCell id="p6krplFnAL_RDodfGGNE-14" value="Quotes" style="swimlane;fontStyle=0;childLayout=stackLayout;horizontal=1;startSize=30;horizontalStack=0;resizeParent=1;resizeParentMax=0;resizeLast=0;collapsible=1;marginBottom=0;whiteSpace=wrap;html=1;" vertex="1" parent="1">
          <mxGeometry x="480" y="40" width="140" height="60" as="geometry" />
        </mxCell>
        <mxCell id="p6krplFnAL_RDodfGGNE-21" style="edgeStyle=orthogonalEdgeStyle;rounded=0;orthogonalLoop=1;jettySize=auto;html=1;exitX=0;exitY=0.5;exitDx=0;exitDy=0;entryX=1;entryY=0.5;entryDx=0;entryDy=0;" edge="1" parent="1" source="p6krplFnAL_RDodfGGNE-15" target="p6krplFnAL_RDodfGGNE-11">
          <mxGeometry relative="1" as="geometry" />
        </mxCell>
        <mxCell id="p6krplFnAL_RDodfGGNE-15" value="Product" style="swimlane;fontStyle=0;childLayout=stackLayout;horizontal=1;startSize=30;horizontalStack=0;resizeParent=1;resizeParentMax=0;resizeLast=0;collapsible=1;marginBottom=0;whiteSpace=wrap;html=1;" vertex="1" parent="1">
          <mxGeometry x="480" y="290" width="140" height="60" as="geometry" />
        </mxCell>
        <mxCell id="p6krplFnAL_RDodfGGNE-20" style="edgeStyle=orthogonalEdgeStyle;rounded=0;orthogonalLoop=1;jettySize=auto;html=1;exitX=0;exitY=0.5;exitDx=0;exitDy=0;entryX=1;entryY=0.5;entryDx=0;entryDy=0;" edge="1" parent="1" source="p6krplFnAL_RDodfGGNE-16" target="p6krplFnAL_RDodfGGNE-8">
          <mxGeometry relative="1" as="geometry" />
        </mxCell>
        <mxCell id="p6krplFnAL_RDodfGGNE-16" value="PriceBook" style="swimlane;fontStyle=0;childLayout=stackLayout;horizontal=1;startSize=30;horizontalStack=0;resizeParent=1;resizeParentMax=0;resizeLast=0;collapsible=1;marginBottom=0;whiteSpace=wrap;html=1;" vertex="1" parent="1">
          <mxGeometry x="480" y="190" width="140" height="60" as="geometry" />
        </mxCell>
        <mxCell id="p6krplFnAL_RDodfGGNE-17" value="Article" style="swimlane;fontStyle=0;childLayout=stackLayout;horizontal=1;startSize=30;horizontalStack=0;resizeParent=1;resizeParentMax=0;resizeLast=0;collapsible=1;marginBottom=0;whiteSpace=wrap;html=1;" vertex="1" parent="1">
          <mxGeometry x="480" y="390" width="140" height="60" as="geometry" />
        </mxCell>
        <mxCell id="p6krplFnAL_RDodfGGNE-18" value="Lead" style="swimlane;fontStyle=0;childLayout=stackLayout;horizontal=1;startSize=30;horizontalStack=0;resizeParent=1;resizeParentMax=0;resizeLast=0;collapsible=1;marginBottom=0;whiteSpace=wrap;html=1;" vertex="1" parent="1">
          <mxGeometry y="500" width="140" height="60" as="geometry" />
        </mxCell>
        <mxCell id="p6krplFnAL_RDodfGGNE-22" style="edgeStyle=orthogonalEdgeStyle;rounded=0;orthogonalLoop=1;jettySize=auto;html=1;exitX=0.25;exitY=1;exitDx=0;exitDy=0;entryX=0.75;entryY=1;entryDx=0;entryDy=0;" edge="1" parent="1" source="p6krplFnAL_RDodfGGNE-11" target="p6krplFnAL_RDodfGGNE-11">
          <mxGeometry relative="1" as="geometry" />
        </mxCell>
      </root>
    </mxGraphModel>
  </diagram>
</mxfile>
